<svg width="21" height="21" viewBox="0 0 21 21" fill="none" xmlns="http://www.w3.org/2000/svg">
<path d="M14.994 9.37469C15.0563 9.22683 15.1609 9.10063 15.2946 9.0119C15.4283 8.92318 15.5852 8.87585 15.7457 8.87585C15.9061 8.87585 16.063 8.92318 16.1967 9.0119C16.3305 9.10063 16.435 9.22683 16.4974 9.37469L20.9357 19.8636C21.0199 20.0632 21.0215 20.288 20.94 20.4887C20.8585 20.6894 20.7007 20.8496 20.5012 20.934C20.4026 20.9769 20.2962 20.9993 20.1887 20.9997H11.312C11.1773 20.9994 11.0448 20.9659 10.9262 20.902C10.8076 20.8382 10.7066 20.7461 10.6322 20.6338C10.5578 20.5215 10.5123 20.3926 10.4998 20.2585C10.4872 20.1244 10.508 19.9893 10.5603 19.8651L14.994 9.37469ZM9.69453 8.87618C9.82922 8.87644 9.96176 8.90997 10.0804 8.97381C10.199 9.03764 10.2999 9.1298 10.3743 9.24207C10.4487 9.35435 10.4942 9.48327 10.5068 9.61737C10.5193 9.75146 10.4985 9.88658 10.4462 10.0107L6.0079 20.5012C5.94556 20.649 5.841 20.7752 5.70729 20.8639C5.57358 20.9527 5.41667 21 5.2562 21C5.09573 21 4.93882 20.9527 4.80511 20.8639C4.67141 20.7752 4.56684 20.649 4.5045 20.5012L0.0661735 10.0107C0.0237224 9.91184 0.00124998 9.80555 5.06793e-05 9.69797C-0.00114862 9.59038 0.0189487 9.48362 0.0591853 9.38383C0.099422 9.28405 0.159003 9.1932 0.234497 9.11654C0.309991 9.03987 0.399907 8.9789 0.499067 8.93713C0.597704 8.89422 0.704059 8.87189 0.811625 8.87149L9.69453 8.87618ZM15.7457 11.7875L12.5404 19.3666H18.9478L15.7425 11.7875H15.7457ZM8.4693 10.5092H2.06186L5.2687 18.0883L8.4693 10.5092ZM5.2562 3.35666e-07C5.97638 3.35666e-07 6.68039 0.213548 7.2792 0.613638C7.87801 1.01373 8.34473 1.58239 8.62033 2.24772C8.89593 2.91304 8.96804 3.64515 8.82754 4.35145C8.68704 5.05776 8.34024 5.70654 7.83099 6.21576C7.32175 6.72498 6.67293 7.07176 5.96658 7.21226C5.26024 7.35275 4.5281 7.28064 3.86274 7.00506C3.19737 6.72947 2.62868 6.26278 2.22857 5.664C1.82846 5.06522 1.6149 4.36125 1.6149 3.64111C1.61469 3.16289 1.70874 2.68933 1.89166 2.24747C2.07458 1.80562 2.34279 1.40415 2.68095 1.066C3.01912 0.727849 3.42062 0.459655 3.86249 0.276745C4.30437 0.0938344 4.77796 -0.000205039 5.2562 3.35666e-07ZM15.7457 3.35666e-07C16.7114 3.35666e-07 17.6376 0.383616 18.3204 1.06646C19.0033 1.7493 19.387 2.67543 19.387 3.64111C19.387 4.36125 19.1734 5.06522 18.7733 5.664C18.3732 6.26278 17.8045 6.72947 17.1391 7.00506C16.4738 7.28064 15.7416 7.35275 15.0353 7.21226C14.3289 7.07176 13.6801 6.72498 13.1709 6.21576C12.6616 5.70654 12.3148 5.05776 12.1743 4.35145C12.0338 3.64515 12.1059 2.91304 12.3815 2.24772C12.6571 1.58239 13.1238 1.01373 13.7227 0.613638C14.3215 0.213548 15.0255 3.35666e-07 15.7457 3.35666e-07ZM5.2562 1.63303C4.99248 1.63303 4.73135 1.68497 4.4877 1.78589C4.24406 1.8868 4.02268 2.03472 3.8362 2.22118C3.64972 2.40765 3.5018 2.62902 3.40088 2.87265C3.29996 3.11628 3.24802 3.3774 3.24802 3.64111C3.24802 3.90481 3.29996 4.16594 3.40088 4.40957C3.5018 4.6532 3.64972 4.87457 3.8362 5.06104C4.02268 5.2475 4.24406 5.39542 4.4877 5.49633C4.73135 5.59725 4.99248 5.64919 5.2562 5.64919C5.78881 5.64919 6.2996 5.43762 6.6762 5.06104C7.05281 4.68445 7.26439 4.17369 7.26439 3.64111C7.26439 3.10853 7.05281 2.59777 6.6762 2.22118C6.2996 1.84459 5.78881 1.63303 5.2562 1.63303ZM15.7457 1.63303C15.2131 1.63303 14.7023 1.84459 14.3257 2.22118C13.949 2.59777 13.7375 3.10853 13.7375 3.64111C13.7375 4.17369 13.949 4.68445 14.3257 5.06104C14.7023 5.43762 15.2131 5.64919 15.7457 5.64919C16.2783 5.64919 16.789 5.43762 17.1657 5.06104C17.5423 4.68445 17.7538 4.17369 17.7538 3.64111C17.7538 3.10853 17.5423 2.59777 17.1657 2.22118C16.789 1.84459 16.2783 1.63303 15.7457 1.63303Z" fill="#042614"/>
</svg>
