<?xml version="1.0" standalone="no"?>
<!DOCTYPE svg PUBLIC "-//W3C//DTD SVG 20010904//EN"
 "http://www.w3.org/TR/2001/REC-SVG-20010904/DTD/svg10.dtd">
<svg version="1.0" xmlns="http://www.w3.org/2000/svg"
 width="5000.000000pt" height="5000.000000pt" viewBox="0 0 5000.000000 5000.000000"
 preserveAspectRatio="xMidYMid meet">
<metadata>
Created by potrace 1.14, written by Peter Selinger 2001-2017
</metadata>
<g transform="translate(0.000000,5000.000000) scale(0.100000,-0.100000)"
fill="#000000" stroke="none">
<path d="M22982 31907 c-12 -14 -354 -652 -364 -679 -5 -13 8 -23 60 -48 63
-29 75 -35 120 -60 9 -5 33 -16 52 -25 19 -8 69 -35 110 -60 41 -24 90 -51
107 -59 18 -8 53 -29 77 -45 25 -17 49 -31 54 -31 5 0 27 -14 48 -31 22 -18
58 -40 82 -51 23 -11 57 -32 75 -47 18 -16 50 -38 72 -49 22 -11 62 -39 90
-62 27 -23 65 -50 85 -60 19 -10 62 -42 95 -70 33 -29 87 -70 120 -92 33 -23
89 -69 125 -102 36 -34 119 -107 185 -161 151 -126 371 -346 498 -498 55 -65
129 -151 167 -191 37 -40 84 -98 103 -129 20 -30 58 -80 86 -111 27 -30 58
-70 67 -88 9 -18 34 -54 55 -79 21 -26 52 -71 69 -100 18 -30 41 -63 51 -75
11 -11 32 -43 47 -71 28 -51 63 -108 118 -191 17 -26 35 -59 39 -72 4 -14 17
-38 29 -55 23 -32 37 -59 137 -258 77 -152 139 -283 139 -293 0 -4 12 -32 27
-63 35 -74 48 -105 74 -176 25 -69 30 -82 58 -149 12 -27 21 -57 21 -67 0 -10
5 -21 10 -24 6 -3 10 -15 10 -25 0 -11 6 -34 14 -52 8 -18 30 -82 49 -143 l35
-110 386 -3 c392 -2 426 0 426 34 0 15 -49 192 -69 254 -5 14 -14 45 -21 70
-7 25 -22 70 -33 100 -10 30 -23 69 -27 85 -9 31 -48 139 -94 260 -15 39 -34
88 -43 110 -25 66 -55 137 -76 185 -12 25 -28 63 -38 85 -23 54 -157 334 -175
365 -7 14 -25 48 -40 75 -14 28 -40 75 -57 106 -18 31 -44 79 -58 105 -15 27
-42 72 -60 101 -19 29 -52 82 -74 118 -22 37 -55 88 -73 113 -18 26 -40 60
-50 76 -9 16 -31 49 -49 75 -18 25 -53 76 -77 113 -25 37 -61 84 -79 105 -19
21 -52 65 -75 99 -22 33 -64 86 -92 117 -28 31 -78 91 -110 134 -115 152 -717
756 -860 862 -36 27 -96 77 -135 111 -38 35 -93 78 -122 96 -28 18 -77 56
-109 84 -31 27 -77 61 -101 75 -24 14 -73 48 -109 75 -36 28 -69 50 -73 50 -5
0 -35 20 -67 45 -31 25 -63 45 -70 45 -7 0 -34 16 -60 36 -26 20 -62 42 -79
50 -18 7 -46 24 -61 37 -16 13 -49 34 -74 46 -84 42 -147 76 -161 88 -19 15
-270 143 -282 143 -5 0 -21 9 -37 20 -22 16 -30 17 -38 7z"/>
<path d="M16225 31650 c-21 -16 -43 -30 -49 -30 -7 0 -41 -20 -76 -45 -35 -25
-69 -45 -76 -45 -6 0 -29 -14 -50 -31 -22 -17 -57 -40 -79 -51 -22 -11 -60
-36 -84 -56 -24 -20 -59 -43 -77 -52 -18 -10 -55 -35 -81 -57 -26 -22 -73 -56
-103 -75 -30 -20 -75 -54 -100 -77 -25 -23 -74 -61 -110 -85 -36 -24 -107 -83
-158 -130 -50 -47 -98 -86 -104 -86 -16 0 -688 -671 -688 -686 0 -7 -41 -56
-91 -111 -50 -54 -111 -127 -135 -163 -24 -36 -69 -94 -100 -130 -30 -36 -62
-78 -71 -95 -8 -16 -32 -50 -53 -75 -20 -25 -45 -61 -55 -80 -9 -19 -34 -55
-55 -80 -20 -25 -45 -61 -55 -80 -10 -19 -35 -59 -56 -89 -22 -30 -39 -59 -39
-65 0 -6 -13 -28 -30 -47 -16 -20 -43 -62 -59 -93 -17 -31 -45 -82 -62 -114
-18 -31 -41 -75 -53 -97 -12 -23 -31 -55 -43 -72 -13 -17 -23 -36 -23 -41 0
-6 -34 -79 -76 -164 -42 -84 -84 -171 -94 -193 -9 -22 -24 -56 -33 -75 -8 -19
-28 -64 -42 -100 -15 -36 -33 -78 -40 -95 -7 -16 -19 -46 -28 -65 -8 -19 -18
-50 -21 -67 -4 -18 -12 -35 -17 -38 -5 -4 -9 -15 -9 -26 0 -10 -9 -36 -20 -56
-11 -21 -20 -43 -20 -50 0 -8 -4 -21 -9 -31 -11 -22 -30 -77 -42 -122 -20 -70
-28 -96 -44 -140 -10 -25 -26 -79 -37 -120 -11 -41 -23 -88 -28 -105 -49 -176
-103 -416 -136 -610 -14 -82 -27 -152 -29 -155 -7 -11 -64 -525 -75 -670 -12
-173 -12 -811 0 -935 5 -44 11 -118 14 -164 6 -84 11 -126 46 -391 19 -149 58
-371 84 -489 8 -36 25 -111 37 -166 11 -55 25 -113 29 -130 17 -59 51 -181 62
-220 22 -81 31 -111 43 -145 7 -19 20 -57 28 -85 40 -128 167 -471 214 -575 9
-19 23 -53 33 -75 39 -92 59 -136 109 -240 29 -60 58 -119 64 -130 6 -11 16
-31 22 -45 7 -14 20 -38 28 -55 9 -16 26 -48 37 -70 11 -22 29 -53 40 -70 11
-16 30 -48 41 -70 42 -82 99 -178 175 -293 17 -26 39 -63 49 -82 10 -19 35
-55 55 -80 20 -25 45 -61 55 -80 10 -19 34 -55 55 -80 20 -25 47 -63 60 -85
13 -22 49 -69 80 -105 31 -36 76 -94 100 -130 24 -35 78 -100 121 -145 42 -44
79 -89 83 -100 3 -11 44 -58 90 -104 l84 -83 240 268 c132 148 251 283 266
300 l26 32 -96 103 c-53 57 -117 133 -142 169 -25 36 -67 88 -92 115 -25 28
-63 77 -84 110 -22 33 -56 80 -76 105 -21 25 -45 60 -55 79 -9 18 -37 58 -61
88 -24 29 -44 58 -44 64 0 5 -19 39 -42 74 -79 119 -117 180 -124 200 -4 11
-17 33 -28 50 -23 32 -38 60 -140 263 -84 168 -84 168 -95 190 -5 9 -18 37
-29 62 -11 25 -40 92 -64 150 -25 58 -54 128 -64 155 -10 28 -24 61 -31 75 -7
14 -13 30 -13 37 0 12 -21 66 -41 105 -5 10 -9 24 -9 33 0 8 -6 29 -14 47 -13
30 -74 226 -91 288 -3 14 -11 40 -16 58 -22 76 -30 104 -39 140 -14 51 -47
205 -71 332 -10 58 -26 137 -35 175 -22 104 -60 428 -80 700 -13 172 -7 716
10 890 26 280 46 448 62 520 8 39 19 99 24 135 5 36 17 99 26 140 9 41 24 113
34 160 16 75 43 180 71 278 5 17 14 49 20 70 27 98 28 101 59 187 4 11 19 58
34 105 15 47 43 126 62 175 20 50 42 108 51 130 24 63 52 127 73 167 11 20 20
43 20 50 0 8 9 31 20 53 11 22 20 44 20 51 0 6 7 17 14 24 8 6 20 28 27 48 6
20 20 48 29 62 10 14 21 36 25 50 4 14 15 36 25 50 10 14 21 36 25 50 4 14 17
39 30 55 12 17 32 50 44 75 31 63 80 149 119 205 17 27 32 54 32 60 0 7 9 20
21 31 12 10 33 42 46 69 14 28 41 70 60 95 18 25 53 74 78 110 113 165 146
210 192 261 27 30 70 84 96 120 112 161 721 770 903 905 43 32 103 80 133 107
30 27 79 64 110 84 31 20 76 53 101 73 25 21 61 46 80 55 19 10 55 35 80 55
25 21 63 46 85 58 22 11 57 34 79 51 21 17 43 31 49 31 5 0 31 15 57 34 26 18
68 43 93 54 26 12 47 27 47 34 -1 19 -383 681 -396 685 -6 2 -28 -10 -49 -27z"/>
<path d="M19410 30599 c-1831 -149 -3451 -1254 -4260 -2904 -162 -331 -278
-640 -369 -985 -32 -122 -101 -452 -101 -485 0 -19 5 -20 104 -17 82 3 119 -1
177 -17 40 -11 74 -20 75 -18 1 1 18 83 38 182 104 525 300 1038 571 1500 728
1239 1964 2090 3382 2329 289 48 441 60 803 60 362 0 514 -11 803 -60 464 -78
878 -209 1302 -413 455 -219 803 -459 1242 -857 l63 -57 74 71 c40 38 103 86
140 107 36 20 66 40 66 45 0 12 -227 221 -365 335 -830 689 -1843 1099 -2929
1185 -151 12 -664 11 -816 -1z"/>
<path d="M23694 28990 c-215 -56 -359 -196 -433 -418 -41 -124 -41 -196 -1
-321 66 -206 207 -351 400 -412 295 -93 615 65 733 363 25 61 27 78 27 208 0
130 -2 147 -26 208 -76 191 -225 322 -422 373 -93 24 -186 24 -278 -1z"/>
<path d="M19590 28241 c-206 -34 -377 -91 -538 -177 -471 -252 -826 -697
-1014 -1269 -56 -171 -91 -352 -118 -597 -33 -316 18 -740 131 -1072 169 -498
483 -911 889 -1170 75 -48 255 -133 349 -165 222 -76 494 -108 684 -81 285 41
476 106 688 235 473 286 829 799 972 1395 62 258 72 352 71 645 0 273 -9 358
-63 609 -61 283 -198 589 -388 866 -175 255 -486 519 -753 639 -120 54 -131
58 -215 84 -75 23 -105 30 -245 58 -104 20 -324 20 -450 0z"/>
<path d="M23522 26700 c2 -5 235 -572 518 -1260 l515 -1249 175 -1 176 0 228
548 c126 301 232 550 235 554 3 4 109 -243 236 -548 l229 -554 176 0 175 0
512 1243 c282 683 515 1250 519 1260 6 16 -7 17 -216 15 l-223 -3 -386 -1012
c-212 -556 -388 -1014 -391 -1017 -4 -3 -328 782 -365 885 -3 9 87 258 201
555 114 296 209 549 212 562 l4 22 -188 -2 -188 -3 -150 -412 c-83 -226 -153
-414 -156 -417 -3 -2 -73 183 -155 412 l-150 417 -194 3 c-153 2 -192 0 -188
-10 279 -720 427 -1114 422 -1127 -42 -120 -361 -889 -366 -883 -4 4 -178 455
-387 1002 -209 547 -384 1003 -387 1013 -7 15 -27 17 -227 17 -140 0 -218 -4
-216 -10z"/>
<path d="M28027 26698 c-3 -7 -219 -553 -482 -1213 -262 -660 -485 -1221 -496
-1248 l-19 -47 216 2 216 3 128 335 129 335 483 3 484 2 130 -337 131 -338
212 -3 c116 -1 211 1 211 5 0 5 -222 571 -494 1258 l-493 1250 -175 3 c-135 2
-177 -1 -181 -10z m379 -994 c103 -275 189 -507 191 -516 5 -17 -19 -18 -396
-18 -220 0 -401 3 -401 8 0 4 91 242 202 530 130 336 205 518 210 509 4 -8 91
-239 194 -513z"/>
<path d="M29670 25450 l0 -1260 200 0 200 0 2 895 3 895 371 -677 371 -678
113 0 113 0 366 672 366 673 3 -890 2 -890 205 0 205 0 0 1260 0 1260 -216 -2
-216 -3 -407 -750 c-223 -413 -410 -756 -414 -763 -6 -9 -145 239 -422 750
l-413 763 -216 3 -216 2 0 -1260z"/>
<path d="M32750 25450 l0 -1260 200 0 200 0 0 1260 0 1260 -200 0 -200 0 0
-1260z"/>
<path d="M33710 25451 l0 -1261 200 0 200 0 0 435 0 435 289 0 289 0 263 -422
c144 -233 267 -429 274 -436 8 -9 64 -12 237 -10 l225 3 -293 474 -294 474 54
22 c120 49 242 159 318 287 194 327 141 750 -131 1026 -68 69 -123 109 -217
156 -143 71 -122 69 -801 73 l-613 4 0 -1260z m1211 863 c167 -79 273 -280
254 -479 -17 -174 -102 -316 -230 -383 l-50 -27 -392 -3 -393 -3 0 466 0 466
373 -3 372 -3 66 -31z"/>
<path d="M36050 25450 l0 -1260 200 0 200 0 0 1260 0 1260 -200 0 -200 0 0
-1260z"/>
<path d="M37010 25450 l0 -1260 200 0 200 0 0 1260 0 1260 -200 0 -200 0 0
-1260z"/>
<path d="M14661 26104 c-190 -51 -344 -218 -386 -419 -19 -93 -19 -127 5 -219
51 -201 196 -352 385 -402 69 -19 209 -18 276 2 167 50 302 177 360 339 27 73
36 209 20 287 -28 132 -127 275 -242 349 -112 72 -287 98 -418 63z"/>
<path d="M14935 24963 c-52 -14 -236 -13 -283 2 -27 9 -28 26 14 -285 115
-853 454 -1682 972 -2380 303 -408 666 -774 1067 -1073 804 -601 1725 -947
2738 -1028 190 -15 775 -6 942 14 316 39 537 80 790 148 865 233 1649 679
2297 1307 108 105 299 312 306 332 2 5 -23 17 -55 27 -73 22 -160 79 -205 133
l-34 42 -74 -79 c-704 -748 -1528 -1227 -2495 -1452 -363 -84 -652 -115 -1085
-115 -442 0 -710 29 -1102 120 -1276 294 -2386 1104 -3066 2239 -99 166 -271
511 -337 680 -158 399 -267 830 -312 1229 -9 86 -20 155 -23 155 -3 -1 -27 -8
-55 -16z"/>
<path d="M27110 23715 l0 -85 1198 0 c658 0 2949 -5 5091 -10 2141 -6 3901 -8
3911 -5 18 6 65 145 52 156 -7 6 -7545 29 -9409 29 l-843 0 0 -85z"/>
<path d="M26118 23623 c-29 -5 -31 -8 -64 -133 -8 -30 -20 -71 -28 -90 -8 -19
-21 -57 -29 -85 -26 -84 -52 -157 -113 -317 -41 -107 -110 -266 -178 -408 -26
-52 -46 -99 -46 -103 0 -4 -11 -25 -25 -45 -14 -20 -25 -44 -25 -53 0 -9 -13
-33 -30 -54 -16 -21 -30 -43 -30 -50 0 -7 -12 -30 -26 -51 -15 -21 -31 -52
-37 -69 -6 -16 -25 -49 -44 -73 -18 -24 -33 -49 -33 -56 0 -7 -18 -37 -40 -66
-22 -29 -40 -59 -40 -66 0 -7 -17 -34 -39 -61 -21 -27 -47 -65 -56 -83 -10
-19 -40 -63 -67 -99 -28 -36 -54 -75 -59 -88 -4 -12 -32 -49 -62 -81 -30 -32
-73 -87 -97 -123 -24 -35 -80 -104 -125 -154 -45 -49 -110 -126 -145 -170 -84
-104 -404 -424 -500 -500 -41 -33 -118 -98 -170 -145 -52 -48 -122 -105 -155
-127 -33 -22 -86 -64 -118 -92 -32 -28 -73 -57 -90 -65 -18 -7 -59 -36 -92
-64 -33 -29 -64 -52 -69 -52 -5 0 -37 -20 -71 -45 -35 -25 -74 -49 -87 -54
-13 -5 -45 -25 -71 -45 -26 -20 -51 -36 -56 -36 -5 0 -32 -15 -60 -34 -28 -19
-61 -38 -74 -41 -12 -4 -36 -18 -53 -30 -16 -13 -47 -30 -68 -39 -20 -8 -49
-25 -63 -36 -14 -11 -33 -20 -43 -20 -10 0 -29 -9 -43 -20 -14 -12 -41 -26
-59 -32 -18 -6 -40 -16 -48 -23 -13 -11 -57 -31 -210 -98 -25 -10 -63 -27 -85
-37 -110 -50 -134 -59 -180 -74 -27 -9 -63 -23 -80 -30 -75 -34 -107 -46 -125
-46 -10 0 -22 -4 -25 -10 -3 -5 -15 -10 -25 -10 -11 0 -34 -6 -52 -14 -18 -8
-53 -19 -78 -26 -25 -7 -61 -18 -80 -26 -31 -12 -169 -49 -330 -90 -311 -78
-657 -134 -1050 -170 -185 -17 -731 -23 -895 -10 -271 21 -521 49 -645 71 -47
9 -105 18 -130 21 -25 3 -90 17 -145 30 -55 13 -131 30 -170 38 -38 8 -95 21
-125 29 -30 9 -91 25 -135 37 -108 28 -352 105 -450 142 -214 80 -288 109
-351 139 -34 16 -64 29 -68 29 -11 0 -105 44 -290 136 -162 81 -171 84 -187
67 -19 -21 -420 -567 -440 -601 -13 -21 -12 -25 11 -42 22 -18 416 -216 515
-259 22 -10 60 -27 85 -38 25 -11 70 -30 100 -43 30 -12 67 -29 82 -36 14 -8
31 -14 38 -14 7 0 26 -6 43 -14 18 -8 59 -24 92 -36 33 -13 74 -29 92 -36 17
-8 36 -14 42 -14 6 0 19 -4 29 -10 9 -5 85 -31 167 -57 153 -48 184 -58 245
-73 19 -5 98 -25 175 -44 77 -20 192 -48 255 -62 63 -13 126 -27 140 -30 27
-6 184 -33 240 -40 19 -3 51 -9 70 -14 19 -5 64 -12 100 -15 36 -3 94 -10 130
-15 171 -25 436 -42 750 -47 415 -7 578 2 1075 57 114 13 365 55 508 86 67 14
151 32 187 40 69 14 91 20 210 53 41 12 95 26 120 31 42 10 119 33 165 50 11
4 61 20 110 35 129 39 131 40 235 80 133 51 169 65 215 82 38 14 62 24 165 70
25 11 70 30 100 43 30 13 118 53 195 90 77 37 151 73 165 79 27 13 100 54 207
115 38 21 86 47 107 58 22 11 61 34 87 52 26 17 77 49 114 71 36 22 87 55 113
72 26 18 64 42 84 53 21 11 62 40 92 64 29 25 71 53 93 64 21 11 61 40 89 64
27 25 76 63 110 86 33 22 85 63 115 89 30 27 108 92 174 145 186 149 782 754
876 888 13 19 50 64 83 100 32 36 77 92 99 125 22 33 59 83 82 110 24 28 49
64 58 81 9 17 36 55 60 85 24 30 52 70 62 89 9 19 32 53 50 75 18 22 39 54 48
70 8 17 31 54 51 84 20 29 36 58 36 63 0 6 16 32 35 58 19 26 35 52 35 58 0 5
16 33 35 61 19 28 35 57 35 64 0 8 9 26 20 40 11 14 29 45 40 68 11 24 27 55
35 69 8 14 21 39 29 55 79 161 98 202 158 335 42 93 57 126 73 170 9 25 25 62
36 82 10 20 19 45 19 56 0 10 7 27 15 38 8 10 15 28 15 39 0 11 6 29 14 40 7
11 16 31 19 45 3 14 15 52 26 85 37 104 42 119 58 170 8 28 21 66 28 85 7 19
18 55 25 80 19 66 32 112 41 140 20 62 41 171 35 178 -8 8 -743 13 -788 5z"/>
<path d="M21175 23408 c-38 -10 -108 -40 -155 -65 -328 -178 -492 -242 -740
-291 -30 -6 -80 -16 -110 -22 -146 -28 -571 -29 -717 0 -29 5 -79 15 -110 21
-216 42 -450 131 -685 263 -123 68 -243 96 -415 96 -134 0 -205 -13 -296 -54
-29 -13 -81 -36 -117 -51 -69 -29 -291 -138 -350 -172 -19 -11 -63 -36 -97
-56 -155 -88 -359 -234 -523 -373 -115 -97 -292 -274 -288 -288 4 -15 159
-160 267 -249 228 -187 266 -216 471 -351 93 -61 235 -147 295 -178 17 -9 62
-33 100 -53 153 -80 485 -225 516 -225 8 0 19 -4 25 -8 14 -13 99 -41 370
-121 98 -29 338 -79 459 -96 55 -8 145 -21 200 -31 151 -25 790 -32 981 -10
888 102 1587 372 2290 883 157 113 524 436 524 460 0 6 -51 61 -112 123 -276
278 -596 504 -977 693 -224 111 -278 132 -424 166 -78 18 -300 12 -382 -11z"/>
<path d="M23807 22870 c-256 -65 -369 -365 -220 -580 162 -233 520 -201 641
58 24 50 27 69 27 157 0 89 -3 106 -28 157 -60 123 -181 205 -314 213 -37 2
-85 0 -106 -5z"/>
</g>
</svg>
